<svg xmlns="http://www.w3.org/2000/svg" viewBox="0 0 128 128">
  <defs>
    <linearGradient id="pathsplitGradient" x1="0%" y1="0%" x2="100%" y2="100%">
      <stop offset="0%" stop-color="#111827" />
      <stop offset="100%" stop-color="#9a3412" />
    </linearGradient>
  </defs>
  <rect width="128" height="128" rx="28" fill="#f5efe5" />
  <path
    d="M27 90V36h23c16.4 0 27 8.8 27 22 0 9.5-5.8 16.5-15.2 19.3L88 90H70.7L47.8 79.4H43V90H27Zm16-23.3h8c7.8 0 12.6-3.4 12.6-9.3 0-6.1-4.8-9.5-12.6-9.5h-8v18.8Z"
    fill="url(#pathsplitGradient)"
  />
  <path
    d="M86 33h15v58c0 7.3-5.9 13.2-13.2 13.2H73V92h10.5c1.4 0 2.5-1.1 2.5-2.5V33Z"
    fill="#9a3412"
  />
</svg>
